PathFileType	4	(X/Y/Z)	s11c0101.trc
DataRate	CameraRate	NumFrames	NumMarkers	Units	OrigDataRate	OrigDataStartFrame	OrigNumFrames
200	200	6	48	mm	200	1000	2000
Frame#	Time	racr			lacr			c7			jug			rlel			rdr			llel			ldr			s2			lic			ric			lasi			rasi			rpsi			lpsi			rgt			lgt			rth1			rth2			rth3			rth4			rlfc			rmfc			rsh1			rsh2			rsh3			rsh4			rlmal			rcal			rtoe			rmt5			lth1			lth2			lth4			lth3			llfc			lmfc			llmal			lcal			lmt5			lsh1			lsh2			lsh3			lsh4			ltoe			SBIKE			LBIKE			RBIKE			
		X1	Y1	Z1	X2	Y2	Z2	X3	Y3	Z3	X4	Y4	Z4	X5	Y5	Z5	X6	Y6	Z6	X7	Y7	Z7	X8	Y8	Z8	X9	Y9	Z9	X10	Y10	Z10	X11	Y11	Z11	X12	Y12	Z12	X13	Y13	Z13	X14	Y14	Z14	X15	Y15	Z15	X16	Y16	Z16	X17	Y17	Z17	X18	Y18	Z18	X19	Y19	Z19	X20	Y20	Z20	X21	Y21	Z21	X22	Y22	Z22	X23	Y23	Z23	X24	Y24	Z24	X25	Y25	Z25	X26	Y26	Z26	X27	Y27	Z27	X28	Y28	Z28	X29	Y29	Z29	X30	Y30	Z30	X31	Y31	Z31	X32	Y32	Z32	X33	Y33	Z33	X34	Y34	Z34	X35	Y35	Z35	X36	Y36	Z36	X37	Y37	Z37	X38	Y38	Z38	X39	Y39	Z39	X40	Y40	Z40	X41	Y41	Z41	X42	Y42	Z42	X43	Y43	Z43	X44	Y44	Z44	X45	Y45	Z45	X46	Y46	Z46	X47	Y47	Z47	X48	Y48	Z48	
1000	5.0000	525.468920	1349.463972	-71.650794	546.824727	1371.147712	-371.309813	486.598977	1434.563661	-227.934729	499.934920	1250.405098	-252.300717	544.175367	1086.621109	41.588807	769.135287	939.502000	-63.583888	540.645544	1128.866612	-571.259895	779.603828	930.588607	-478.175033	-91.404785	1212.973862	-270.523498	128.051009	1225.317467	-471.063955	118.130373	1228.498461	-63.736098	158.343700	1155.908713	-440.613095	142.354599	1183.380956	-118.151595	-52.607749	1290.326620	-221.117311	-50.092255	1280.209525	-316.901919	100.154463	1118.190420	-49.721076	26.685998	1081.042220	-471.024247	230.892495	1069.689540	-48.813180	318.789307	1070.166442	-61.461851	394.530172	1027.033451	-69.306483	327.472964	1104.177266	-71.403299	496.845232	993.467237	-86.097017	501.921435	973.498798	-220.728143	418.267505	864.765370	-77.732531	382.917621	785.845917	-96.954021	314.138891	732.666753	-98.317027	405.943726	773.147422	-126.170745	216.053118	630.676029	-109.586167	153.271984	649.353791	-157.348041	369.205017	460.737242	-153.527390	298.565195	481.029100	-83.418586	91.071947	946.710898	-489.128342	139.984236	876.644420	-485.928692	175.596395	888.397350	-484.471392	147.710353	787.986130	-471.294779	199.273699	658.916867	-441.670742	216.974651	656.180079	-312.029119	93.481007	239.359656	-411.572730	42.450998	191.955942	-375.575111	243.322151	152.908868	-454.944264	165.725527	539.137872	-458.769615	170.208112	454.199700	-442.493622	131.354920	375.368567	-435.838785	201.294160	451.507853	-420.425871	340.152965	184.606884	-391.312820	-215.607583	960.686074	-257.968836	-17.877067	80.862767	-461.035261	-17.784677	81.056694	-62.209418	
1001	5.0050	524.976921	1349.150170	-69.673600	547.659087	1369.834513	-368.318068	487.333223	1433.187832	-226.029817	500.527304	1248.975517	-250.068120	544.959053	1086.868952	42.684384	769.255467	939.441236	-63.372901	542.621226	1130.161530	-571.057886	780.080078	930.432459	-478.112961	-91.435413	1215.404543	-271.840627	129.392955	1226.067129	-471.259629	116.534690	1230.360758	-63.805963	159.135924	1156.550324	-441.186739	140.429536	1185.433594	-118.347934	-52.524210	1292.829752	-222.450457	-49.431652	1282.381832	-318.307112	98.888534	1121.248010	-49.864086	26.261403	1082.215129	-471.380849	230.025063	1072.874546	-49.437578	318.010987	1073.417444	-63.047810	393.755485	1030.830439	-70.325590	326.487639	1108.038368	-72.143855	495.853276	999.007072	-87.136497	502.436678	978.930754	-222.030075	420.765299	868.099952	-78.481532	387.204833	788.239250	-97.490199	319.681609	733.367109	-98.560321	410.380313	776.087859	-126.846544	222.718154	629.145618	-109.590510	158.770628	646.370849	-157.017964	380.315817	463.711033	-153.661549	309.198218	481.918971	-83.500848	89.827107	948.022236	-490.247578	138.570532	877.901527	-487.531000	174.232587	889.452445	-486.730451	146.289785	789.214447	-472.909157	197.439319	660.055414	-443.603232	217.482739	657.341908	-314.530186	84.343518	242.496523	-411.514551	32.761409	195.909733	-375.233640	232.803182	153.361017	-454.812732	162.356627	540.610083	-460.198025	165.307230	455.653165	-443.644804	124.987505	377.570640	-436.444409	196.432160	452.441095	-421.608052	330.191417	183.358883	-391.279058	-215.513614	960.659935	-257.736166	-17.885710	80.899237	-461.026478	-17.782092	81.097472	-62.211914	
1002	5.0100	524.787003	1348.645870	-67.919151	548.537986	1367.986874	-365.398773	488.136297	1431.673721	-224.219790	501.039688	1247.347676	-247.535564	545.822019	1086.996951	43.686604	769.412304	939.385995	-63.221709	544.489866	1131.336127	-571.149384	780.462852	930.193339	-478.125362	-91.312978	1217.929584	-273.056035	130.516009	1227.115963	-471.359560	115.036232	1232.419500	-63.900190	159.639076	1157.152060	-441.613170	138.643621	1187.180558	-118.682540	-52.298530	1295.612758	-223.488121	-48.863199	1284.716659	-319.496599	97.377546	1124.272003	-49.811536	25.830789	1083.758936	-471.961540	229.001618	1076.036777	-50.115755	316.991303	1076.028319	-64.562940	392.693634	1034.119185	-71.430238	325.324565	1111.496712	-72.762060	494.837470	1003.766055	-88.014614	502.506230	983.495879	-223.487155	422.890472	870.346297	-79.242273	391.034259	789.685582	-98.037369	324.736971	733.403888	-98.736855	414.237821	777.966345	-127.556361	229.354316	627.111574	-109.400141	164.470907	642.162461	-156.649190	391.200890	466.202886	-153.813821	319.639381	482.139246	-83.534988	88.840128	949.409232	-491.322893	137.657170	879.353165	-489.129983	173.297261	890.945071	-488.879502	145.627787	790.748047	-474.442680	196.756726	661.400941	-445.583884	218.762876	658.807531	-317.194425	75.402765	246.318235	-411.477759	23.188844	200.789871	-374.984886	222.432237	154.515265	-454.690868	159.762576	542.527739	-461.657428	160.888211	457.675032	-444.724632	118.898832	380.512941	-437.051682	192.072963	453.790564	-422.807756	320.365619	182.967588	-391.253205	-215.538251	960.684761	-257.740357	-17.882131	80.942975	-461.020432	-17.782582	81.116410	-62.200634	
1003	5.0150	524.889308	1347.820061	-66.564255	549.373575	1365.470849	-362.459468	488.892293	1429.983351	-222.576574	501.352204	1245.467027	-244.596521	546.744698	1087.029597	44.684050	769.583793	939.312174	-63.060448	546.224446	1132.073324	-571.450382	780.715850	929.939534	-478.182100	-91.423809	1220.744429	-273.997786	131.367326	1227.780089	-471.240168	113.582546	1234.616864	-63.974797	160.138339	1157.903125	-442.266373	137.084819	1188.809848	-119.897656	-52.289850	1298.530704	-224.782228	-48.353398	1287.146572	-320.620168	95.745145	1126.971503	-49.564116	25.390268	1085.293019	-472.496728	227.730006	1078.936301	-50.322295	315.842815	1078.527477	-61.916170	391.307402	1036.690591	-72.516313	323.905029	1114.213658	-73.534204	493.592060	1007.555929	-88.890800	501.999480	987.047900	-224.905453	424.684657	871.346689	-80.065277	394.207484	790.148877	-98.484420	329.264739	732.307062	-98.845177	417.723268	778.726345	-128.219890	236.059347	624.347058	-108.194160	169.782220	637.073924	-156.150635	401.866382	468.106164	-153.918700	329.924248	481.578000	-83.576590	88.134202	950.770832	-492.213167	137.257576	880.996029	-490.507981	172.814784	892.686578	-490.864697	145.788226	792.257443	-475.985442	197.131871	663.049388	-447.597838	220.885701	660.623333	-319.802412	66.522839	251.030866	-411.638814	13.988246	206.430716	-374.834611	212.266528	156.214353	-454.502427	157.976935	545.040464	-463.225211	157.065031	460.120111	-445.925015	113.197145	384.075612	-437.809208	188.180710	455.557315	-424.113347	310.714560	182.854670	-391.122557	-215.546978	960.690270	-257.718997	-17.831082	80.836101	-461.128813	-17.784873	81.143489	-62.200021	
1004	5.0200	525.227099	1346.821785	-65.543375	549.538442	1361.857685	-358.732852	489.622707	1428.178330	-221.008557	500.578912	1243.288925	-240.563939	547.664057	1086.991522	45.635967	769.775298	939.189944	-62.952096	547.807515	1132.698490	-572.014162	780.855104	929.769568	-478.465451	-91.300249	1223.406571	-274.870079	132.163141	1228.846198	-471.390678	112.224195	1236.671776	-64.081751	160.439339	1158.682837	-442.930659	135.526613	1190.332261	-120.250004	-52.030196	1301.270063	-225.669289	-47.823786	1289.624764	-321.557105	93.819568	1129.896790	-48.989461	24.829204	1086.756843	-473.118927	226.172465	1081.381959	-50.768683	314.213126	1081.328068	-63.290531	389.576383	1038.591141	-73.522712	322.346982	1116.365173	-74.543656	491.287066	1010.100432	-90.057733	500.921527	989.326084	-226.129260	426.091965	871.097978	-80.961317	397.091494	789.204345	-99.081044	333.321210	730.251654	-99.011450	420.699905	778.300019	-128.862505	241.872033	620.145678	-108.014801	174.895673	631.023122	-155.614175	412.302607	469.443549	-153.999718	340.068422	480.379735	-83.574444	87.795625	952.210386	-492.930750	137.428280	882.811769	-491.777588	172.873934	894.770519	-492.571392	146.712085	794.261579	-477.480640	198.652672	665.044845	-449.621592	223.817071	662.628482	-322.253420	58.408512	256.405901	-411.535800	5.115616	213.191617	-374.748333	202.251477	158.699693	-454.332191	156.952208	548.055685	-464.794806	153.846852	463.273173	-447.182732	108.005436	388.460811	-438.586905	184.932755	457.910661	-425.524700	301.313863	183.337263	-391.045366	-215.565901	960.708168	-257.731862	-17.822845	80.871312	-461.107171	-17.792647	81.159800	-62.198086	
1005	5.0250	525.700881	1345.552771	-64.993023	550.375102	1358.638667	-356.028298	490.386478	1426.215507	-219.634118	500.732118	1241.112367	-237.424278	548.702691	1086.738701	46.513453	769.959706	938.995761	-62.791151	549.297083	1133.090510	-572.813089	780.908267	929.648149	-478.826807	-91.311149	1226.157991	-275.628179	132.784259	1229.764016	-471.601979	110.864258	1238.688252	-64.116591	160.609021	1159.498577	-443.725657	134.059628	1191.577115	-120.627970	-51.762051	1304.017720	-226.557116	-47.455366	1292.025505	-322.341018	91.902048	1132.280206	-48.516863	24.190159	1088.220997	-473.750968	224.291378	1083.400961	-51.356102	312.285342	1083.235310	-64.269198	387.500429	1039.592237	-74.506173	320.580265	1117.757864	-75.529051	489.135693	1011.120080	-91.380933	499.137671	990.183793	-227.354511	427.241895	869.550229	-81.763190	399.658505	787.183476	-99.587934	336.884546	727.090462	-99.180319	423.214260	776.720601	-129.594369	247.341540	614.965651	-107.770210	179.782478	623.902804	-154.958378	422.356920	470.194202	-154.114878	349.861992	478.452984	-83.555535	87.773532	953.731452	-493.657010	138.142528	884.830722	-492.853035	173.410248	897.120086	-494.023339	148.492199	796.235982	-478.927582	201.223100	667.379509	-451.568175	227.535200	664.942449	-324.692999	50.907636	262.777489	-411.855998	-3.287601	220.823504	-374.801966	192.622795	161.874512	-454.171315	156.695451	551.606393	-466.458688	151.400239	466.882243	-448.402830	103.520387	393.422535	-439.520921	182.331650	460.735766	-426.490057	292.187308	184.247560	-390.913251	-215.579176	960.710652	-257.753857	-17.855689	80.866697	-461.119678	-17.793000	81.186925	-62.199631	
